<svg width="41" height="48" viewBox="0 0 41 48" fill="none" xmlns="http://www.w3.org/2000/svg">
<mask id="mask0_30_10" style="mask-type:luminance" maskUnits="userSpaceOnUse" x="0" y="0" width="41" height="48">
<path d="M40.7473 0H0V48H40.7473V0Z" fill="white"/>
</mask>
<g mask="url(#mask0_30_10)">
<path d="M33.9722 46.08C31.3493 48.6046 28.4553 48.2113 25.6969 47.0206C22.7643 45.8063 20.0833 45.7296 16.9861 47.0206C13.1291 48.672 11.0821 48.192 8.75921 46.08C-4.35541 32.688 -2.41968 12.288 12.4855 11.52C16.1005 11.712 18.6315 13.5024 20.7608 13.6512C23.9257 13.0128 26.9551 11.184 30.3427 11.424C34.4124 11.7504 37.4565 13.344 39.489 16.2096C31.117 21.2016 33.1011 32.1456 40.791 35.2176C39.2518 39.2256 37.2774 43.1856 33.9675 46.1136L33.9722 46.08ZM20.4704 11.376C20.0784 5.42397 24.942 0.527974 30.5363 0.0479736C31.3057 6.91197 24.2451 12.048 20.4704 11.376Z" fill="#E8E8ED" fill-opacity="0.8"/>
</g>
</svg>
